<?xml version="1.0" encoding="UTF-8"?>
<svg width="128px" height="18px" viewBox="0 0 128 18" version="1.1" xmlns="http://www.w3.org/2000/svg" xmlns:xlink="http://www.w3.org/1999/xlink">
    <!-- Generator: Sketch 48.2 (47327) - http://www.bohemiancoding.com/sketch -->
    <title>logo</title>
    <desc>Created with Sketch.</desc>
    <defs>
        <polygon id="path-1" points="0 18 128 18 128 0 0 0"></polygon>
    </defs>
    <g id="TopNav/Default" stroke="none" stroke-width="1" fill="none" fill-rule="evenodd" transform="translate(-26.000000, -13.000000)">
        <g id="logo" transform="translate(26.000000, 13.000000)">
            <path d="M19.5523538,13.140519 C19.5523538,14.7273392 20.6641986,16.1157196 22.3824764,16.1157196 C24.1007542,16.1157196 25.3136204,14.8264594 25.3136204,13.140519 C25.3136204,11.3554585 24.1007542,10.1653185 22.3824764,10.1653185 C20.6641986,10.1653185 19.5523538,11.4545787 19.5523538,13.140519 Z M27.2340426,17.7025398 L25.111476,17.7025398 L25.111476,16.6116196 C24.5050429,17.4050795 23.4943212,18 22.180332,18 C19.5523538,18 17.4297872,15.9174793 17.4297872,13.140519 C17.4297872,10.2644386 19.5523538,8.18181818 22.180332,8.18181818 C23.4943212,8.18181818 24.5050429,8.77693807 25.111476,9.5702983 L25.111476,8.47937813 L27.2340426,8.47937813 L27.2340426,17.7025398 Z" id="Fill-1" fill="#FFFFFF"></path>
            <path d="M35.343754,10.171617 L31.7125596,10.171617 L31.7125596,14.2865285 C31.7125596,15.591259 32.4186562,16.0931095 33.2255657,16.0931095 C33.8307479,16.0931095 34.5368445,15.791979 35.1420266,15.390539 L35.9489362,16.9964 C35.1420266,17.59856 34.2342027,18 33.0237369,18 C30.9055486,18 29.6951843,16.79568 29.6951843,14.2865285 L29.6951843,10.171617 L27.7787234,10.171617 L27.7787234,8.36513693 L29.6951843,8.36513693 L29.6951843,5.45454545 L31.7125596,5.45454545 L31.7125596,8.36513693 L35.343754,8.36513693 L35.343754,10.171617" id="Fill-3" fill="#FFFFFF"></path>
            <path d="M38.4970605,9.46758284 C39.2983976,8.39615147 40.4002865,8.1039073 41.4019579,8.1039073 C43.6057357,8.1039073 45.2085106,9.6622817 45.2085106,11.8051444 L45.2085106,17.4545455 L43.1049504,17.4545455 L43.1049504,12.3896328 C43.1049504,10.9286078 42.3035125,10.0519732 41.0012894,10.0519732 C39.5988487,10.0519732 38.4970605,10.8311604 38.4970605,12.3896328 L38.4970605,17.4545455 L36.493617,17.4545455 L36.493617,3.81818182 L38.4970605,3.81818182 L38.4970605,9.46758284" id="Fill-5" fill="#FFFFFF"></path>
            <path d="M48.331328,12.3471588 L53.0760905,12.3471588 C52.7856524,10.8595585 52.0109238,9.96697841 50.7520994,9.96697841 C49.2996171,9.96697841 48.5249859,10.9586787 48.331328,12.3471588 M55.012766,13.0413989 L55.012766,13.8347591 L48.331328,13.8347591 C48.6217661,15.5206994 49.7838103,16.2149395 51.0426348,16.2149395 C51.9141436,16.2149395 52.8824327,15.8182594 53.6570639,15.2232392 L54.6254503,16.7108395 C53.5602837,17.6033199 52.3014592,18 50.9458545,18 C48.2344505,18 46.2978723,16.0165994 46.2978723,13.140519 C46.2978723,10.1653185 48.1376702,8.18181818 50.7520994,8.18181818 C53.2697483,8.18181818 55.012766,10.1653185 55.012766,13.0413989" id="Fill-7" fill="#FFFFFF"></path>
            <path d="M65.3617021,11.8522161 L65.3617021,17.4545455 L63.2580411,17.4545455 L63.2580411,12.4318344 C63.2580411,10.9829829 62.456704,10.1136526 61.1544808,10.1136526 C59.8522577,10.1136526 58.650252,10.8863474 58.650252,12.4318344 L58.650252,17.4545455 L56.6468085,17.4545455 L56.6468085,8.47153021 L58.650252,8.47153021 L58.650252,9.53413138 C59.4515891,8.47153021 60.553478,8.18181818 61.5552501,8.18181818 C63.7589272,8.18181818 65.3617021,9.72720798 65.3617021,11.8522161" id="Fill-9" fill="#FFFFFF"></path>
            <path d="M68.5736084,13.140519 C68.5736084,14.7273392 69.6854416,16.1157196 71.5048236,16.1157196 C73.1220633,16.1157196 74.3348152,14.8264594 74.3348152,13.140519 C74.3348152,11.3554585 73.1220633,10.1653185 71.5048236,10.1653185 C69.6854416,10.1653185 68.5736084,11.4545787 68.5736084,13.140519 M76.2553191,17.7025398 L74.2337949,17.7025398 L74.2337949,16.6116196 C73.5262462,17.4050795 72.5155349,18 71.2015594,18 C68.5736084,18 66.4510638,15.9174793 66.4510638,13.140519 C66.4510638,10.2644386 68.5736084,8.18181818 71.2015594,8.18181818 C72.5155349,8.18181818 73.5262462,8.77693807 74.2337949,9.5702983 L74.2337949,8.47937813 L76.2553191,8.47937813 L76.2553191,17.7025398" id="Fill-11" fill="#FFFFFF"></path>
            <path d="M79.5299697,10.0519201 C80.2274599,8.88303294 81.5227559,8.39608641 82.8179516,8.39608641 C85.1096908,8.39608641 86.6042553,9.75977174 86.6042553,12 L86.6042553,17.4545455 L85.508228,17.4545455 L85.508228,12.2921483 C85.508228,10.5389645 84.511885,9.3700774 82.6187832,9.3700774 C80.9249501,9.3700774 79.5299697,10.6363147 79.5299697,12.3895964 L79.5299697,17.4545455 L78.4340426,17.4545455 L78.4340426,3.81818182 L79.5299697,3.81818182 L79.5299697,10.0519201" id="Fill-13" fill="#FFFFFF"></path>
            <path d="M88.8687109,12.8267953 L95.2335153,12.8267953 C95.1355498,10.9722891 93.8626873,9.70340094 92.0999974,9.70340094 C90.3375043,9.70340094 89.0645434,10.9722891 88.8687109,12.8267953 M96.4085106,13.3148594 C96.4085106,13.4125115 96.4085106,13.6076193 96.3106436,13.7052714 L88.7708438,13.7052714 C88.9666764,15.8526357 90.4354698,17.0239699 92.2959284,17.0239699 C93.5688893,17.0239699 94.5481505,16.5359058 95.3314808,15.7549836 L95.91888,16.5359058 C94.7438846,17.6094898 93.5688893,18 92.1979629,18 C89.554174,18 87.693617,16.0478417 87.693617,13.3148594 C87.693617,10.679431 89.6520411,8.72727273 92.1979629,8.72727273 C94.5481505,8.72727273 96.3106436,10.5818771 96.4085106,13.3148594" id="Fill-15" fill="#FFFFFF"></path>
            <path d="M98.5930994,13.3148098 C98.5930994,15.3646419 100.086573,16.9263065 102.177415,16.9263065 C104.268258,16.9263065 105.761731,15.3646419 105.761731,13.3148098 C105.761731,11.2650759 104.268258,9.70331312 102.177415,9.70331312 C100.086573,9.70331312 98.5930994,11.3626309 98.5930994,13.3148098 M106.757447,17.8047919 L105.66212,17.8047919 L105.66212,16.1454742 C104.965239,17.2190695 103.670889,18 102.077904,18 C99.4891033,18 97.4978723,16.0479192 97.4978723,13.3148098 C97.4978723,10.6793535 99.4891033,8.72727273 102.077904,8.72727273 C103.670889,8.72727273 104.965239,9.50810504 105.66212,10.5817986 L105.66212,8.8248277 L106.757447,8.8248277 L106.757447,17.8047919" id="Fill-17" fill="#FFFFFF"></path>
            <mask id="mask-2" fill="white">
                <use xlink:href="#path-1"></use>
            </mask>
            <g id="Clip-20"></g>
            <polygon id="Fill-19" fill="#FFFFFF" mask="url(#mask-2)" points="108.93617 17.4545455 110.025532 17.4545455 110.025532 3.81818182 108.93617 3.81818182"></polygon>
            <path d="M118.349294,9.42227248 L114.243254,9.42227248 L114.243254,14.2609806 C114.243254,15.7125833 115.025418,16.3899265 116.198516,16.3899265 C116.980582,16.3899265 117.664938,16.196386 118.251585,15.7125833 L118.740426,16.5835644 C118.153778,17.0673671 117.176098,17.4545455 116.100807,17.4545455 C114.243254,17.4545455 113.167963,16.3899265 113.167963,14.2609806 L113.167963,9.42227248 L111.114894,9.42227248 L111.114894,8.35775086 L113.167963,8.35775086 L113.167963,5.45454545 L114.243254,5.45454545 L114.243254,8.35775086 L118.349294,8.35775086 L118.349294,9.42227248" id="Fill-21" fill="#FFFFFF" mask="url(#mask-2)"></path>
            <path d="M120.925815,10.0519201 C121.623205,8.88303294 122.918601,8.39608641 124.213797,8.39608641 C126.405851,8.39608641 128,9.75977174 128,11.9025519 L128,17.4545455 L126.904073,17.4545455 L126.904073,12.2921483 C126.904073,10.5389645 125.807945,9.3700774 124.014528,9.3700774 C122.221111,9.3700774 120.925815,10.6363147 120.925815,12.3895964 L120.925815,17.4545455 L119.829787,17.4545455 L119.829787,3.81818182 L120.925815,3.81818182 L120.925815,10.0519201" id="Fill-22" fill="#FFFFFF" mask="url(#mask-2)"></path>
            <path d="M6.62694782,8.72727273 C6.62694782,8.72727273 4.99295091,6.52043994 4.90212766,4.11278426 C4.90212766,1.70533031 6.44539261,0.100260149 6.44539261,0 C6.53621585,0.100260149 8.0794808,2.20683279 8.17021277,4.6143876 C8.17021277,7.02194241 6.62694782,8.72727273 6.62694782,8.72727273" id="Fill-23" fill="#FFFFFF" mask="url(#mask-2)"></path>
            <path d="M9.63118187,5.55812301 C9.63118187,6.15531629 10.1315984,6.6530274 10.7320379,6.6530274 C11.432601,6.6530274 11.9330176,6.15531629 11.9330176,5.55812301 C11.9330176,4.86134747 11.432601,4.36363636 10.7320379,4.36363636 C10.1315984,4.36363636 9.63118187,4.86134747 9.63118187,5.55812301 M16.3363412,6.05583412 C16.3363412,6.05583412 16.5364877,10.9330627 14.1346291,14.2176758 C11.7327704,17.502389 7.62961624,18 7.62961624,18 C7.62961624,18 7.42946974,13.2223537 9.83132837,9.93774057 C12.233187,6.6530274 16.3363412,6.05583412 16.3363412,6.05583412" id="Fill-24" fill="#FFFFFF" mask="url(#mask-2)"></path>
            <path d="M6.53617021,13.0583622 C6.53617021,12.1791059 6.34106797,9.34605593 4.87775214,7.29442518 C3.1217339,4.75439511 0,4.36363636 0,4.36363636 L0,4.55911397 C0,5.34063145 0.0975020739,8.36906084 1.65841807,10.5183322 C2.92663167,12.2768447 4.87775214,12.9607217 5.85326333,13.2537416 L5.85326333,17.1615255 C5.85326333,17.2591661 6.04836557,17.4545455 6.24346781,17.4545455 C6.34106797,17.4545455 6.53617021,17.2591661 6.53617021,17.1615255 L6.53617021,13.2537416 L6.53617021,13.0583622" id="Fill-25" fill="#FFFFFF" mask="url(#mask-2)"></path>
        </g>
    </g>
</svg>