<?xml version="1.0" encoding="UTF-8"?>
<svg width="24px" height="21px" viewBox="0 0 24 21" version="1.1" xmlns="http://www.w3.org/2000/svg" xmlns:xlink="http://www.w3.org/1999/xlink">
    <!-- Generator: Sketch 49 (51002) - http://www.bohemiancoding.com/sketch -->
    <title>typeface</title>
    <desc>Created with Sketch.</desc>
    <defs></defs>
    <g id="typeface" stroke="none" stroke-width="1" fill="none" fill-rule="evenodd">
        <g id="Group-3" transform="translate(1.500000, 1.000000)">
            <rect id="Rectangle-2" x="1" y="0" width="19" height="19"></rect>
            <path d="M12.7294922,2.43359375 L12.890625,5.84960938 L12.4824219,5.84960938 C12.4036454,5.24804387 12.2962246,4.81836066 12.1601562,4.56054688 C11.9381499,4.14518021 11.6427427,3.83903093 11.2739258,3.64208984 C10.9051088,3.44514875 10.4199249,3.34667969 9.81835938,3.34667969 L7.76660156,3.34667969 L7.76660156,14.4755859 C7.76660156,15.3707727 7.86328028,15.9293609 8.05664062,16.1513672 C8.3287774,16.4521499 8.74771853,16.6025391 9.31347656,16.6025391 L9.81835938,16.6025391 L9.81835938,17 L3.64160156,17 L3.64160156,16.6025391 L4.15722656,16.6025391 C4.77311506,16.6025391 5.20995965,16.416343 5.46777344,16.0439453 C5.62532631,15.8147775 5.70410156,15.2919963 5.70410156,14.4755859 L5.70410156,3.34667969 L3.953125,3.34667969 C3.27278306,3.34667969 2.78938945,3.39680939 2.50292969,3.49707031 C2.13053199,3.6331387 1.81185028,3.89452932 1.546875,4.28125 C1.28189972,4.66797068 1.12434921,5.19075191 1.07421875,5.84960938 L0.666015625,5.84960938 L0.837890625,2.43359375 L12.7294922,2.43359375 Z M19.6533203,4.61425781 L18.8154297,7.53613281 L20.5019531,7.53613281 L20.3193359,8.21289062 L18.6435547,8.21289062 L16.7958984,14.5507812 C16.5953766,15.2311232 16.4951172,15.6715485 16.4951172,15.8720703 C16.4951172,15.9938157 16.5237627,16.0869137 16.5810547,16.1513672 C16.6383466,16.2158206 16.7063798,16.2480469 16.7851562,16.2480469 C16.9641936,16.2480469 17.2005194,16.1227226 17.4941406,15.8720703 C17.6660165,15.7288404 18.0491507,15.2884151 18.6435547,14.5507812 L18.9980469,14.8193359 C18.3391894,15.7789762 17.7161488,16.4557272 17.1289062,16.8496094 C16.7278626,17.1217462 16.3232442,17.2578125 15.9150391,17.2578125 C15.5999333,17.2578125 15.3421234,17.1593434 15.1416016,16.9624023 C14.9410797,16.7654613 14.8408203,16.5130224 14.8408203,16.2050781 C14.8408203,15.8183574 14.9554025,15.227543 15.1845703,14.4326172 L16.9785156,8.21289062 L15.3564453,8.21289062 L15.4638672,7.79394531 C16.2516315,7.57910049 16.9068984,7.25862843 17.4296875,6.83251953 C17.9524766,6.40641063 18.5361296,5.66699745 19.1806641,4.61425781 L19.6533203,4.61425781 Z" id="Tt" fill="#333433"></path>
        </g>
    </g>
</svg>