<svg xmlns="http://www.w3.org/2000/svg" viewBox="0 0 1024 550"><title>Asset 1</title><g id="Layer_2" data-name="Layer 2"><g id="Layer_1-2" data-name="Layer 1"><path d="M990,551H724a50,50,0,0,1,1.92-6.12Q738.9,516.41,752,488c7.6-16.39,15.32-32.72,23-49.07,0-.65,0-1.3,0-1.95l3,0c.91,1.1,1.6,2.64,2.77,3.22,4.87,2.4,9.88,4.51,14.85,6.72,14.09,6.24,28.26,12.32,42.26,18.75,17.21,7.91,34.26,16.14,51.42,24.16q23.63,11.06,47.33,22c13.73,6.33,27.43,12.7,41.22,18.9,8,3.59,16.1,6.87,24.16,10.3,0,.67,0,1.34,0,2l-2,2Z" transform="translate(-1 -1)" fill="#e83900"/><path d="M210,551H155c-.67-4.37-1.25-8.75-2-13.1-2-11.41-3.95-22.84-6.21-34.2-.85-4.32-2.48-8.47-3.76-12.7,0-.32,0-.63,0-.95.66-1.36,1.31-2.71,2-4.06,2.59-.44,5.72-.1,7.67-1.45,7.46-5.17,14.51-10.93,21.77-16.39q15.45-11.64,31-23.15c7.32-5.42,14.8-10.63,22.05-16.15,6.32-4.81,12.33-10,18.64-14.85q14.77-11.31,29.77-22.32c2.87-2.11,6.05-3.79,9.09-5.67,5.23,9,10.38,18,15.69,27,7.77,13.09,15.52,26.19,23.52,39.13,3.6,5.83,7.79,11.3,11.72,16.93L337,473c-6.05,3.68-12.08,7.38-18.14,11-13.29,8-26.58,16-39.92,23.94-18.61,11.06-37.33,21.93-55.85,33.12C218.43,543.91,214.35,547.67,210,551Z" transform="translate(-1 -1)" fill="#fb4f00"/><path d="M121,1h71c23.6,13.63,47.16,27.34,70.82,40.87q51.09,29.24,102.27,58.32c1.5.86,2.61,2.39,3.9,3.61-22.91-1.57-45.83-3.19-68.75-4.7q-41.36-2.73-82.72-5.33-53.82-3.45-107.64-6.86l-.86-1a26.79,26.79,0,0,0,.74-2.9q3.12-22.22,6.19-44.43Q118.51,19.79,121,1Z" transform="translate(-1 -1)" fill="#f9cd00"/><path d="M775,437c0,.64,0,1.29,0,1.94a58,58,0,0,0-7,3.47c-20.72,13.81-41.36,27.74-62.05,41.6q-22.56,15.11-45.17,30.13-25.07,16.73-50.11,33.5c-1.12.76-1.78,2.21-2.65,3.34H568q2.49-22.23,5-44.45c1.89-16.8,3.88-33.58,5.7-50.39,1.2-11,2.19-22.08,3.27-33.13.07-.95.13-1.89.2-2.84,2.8.26,5.6.55,8.41.78,16.69,1.42,33.39,2.78,50.09,4.25,17.51,1.55,35,3.18,52.52,4.79,12.06,1.1,24.12,2.29,36.18,3.32,15.21,1.29,30.42,2.46,45.63,3.68Z" transform="translate(-1 -1)" fill="#f53d00"/><path d="M524,1H654c4.09,9.76,8.13,19.55,12.29,29.28C672,43.53,677.76,56.71,683.4,70c3.77,8.84,7.22,17.81,11.08,26.61,3.32,7.57,7,15,10.56,22.44l1,0c-.32,1-.65,1.91-1,2.87l-1.88-.19a9.49,9.49,0,0,0-2.07-1.34q-35.64-12-71.31-23.83c-25.67-8.54-51.32-17.14-77-25.56C535.89,65.43,519,60.18,502.06,54.82l-6.34-4.88C503.88,36.46,512.09,23,520.15,9.46A82.91,82.91,0,0,0,524,1Z" transform="translate(-1 -1)" fill="#e84600"/><path d="M582.17,420.19c-.07.95-.13,1.89-.2,2.84a30.69,30.69,0,0,0-3.21,4.24Q572.2,440,565.89,452.86c-4.41,9.05-8.5,18.26-13,27.24-6.93,13.67-14.23,27.16-21.11,40.86-.9,1.79-1.12,4.83-.19,6.44,3.86,6.72,8.3,13.1,12.47,19.64a43.08,43.08,0,0,1,2,4H491c-11.9-4.54-23.74-9.24-35.71-13.6-27.08-9.86-54.23-19.55-81.35-29.31.79-.77,1.45-1.86,2.4-2.27,9.7-4.16,19.46-8.17,29.17-12.3,18.71-7.94,37.37-16,56.1-23.87,5.47-2.31,11.19-4,16.65-6.35,10.06-4.27,19.95-8.93,30-13.19,19.19-8.11,38.45-16,57.66-24.08,4.71-2,9.37-4,14.06-6.06l2,0Z" transform="translate(-1 -1)" fill="#fe7600"/><path d="M705,121.86c.32-1,.65-1.91,1-2.87a63.26,63.26,0,0,0,5.43-5.94C724,95.33,736.53,77.53,749.1,59.78,759.45,45.16,770,30.65,780.17,15.94,783.47,11.21,786.08,6,789,1h73l19,33,0,1-10,5c-12.66,6.11-25.36,12.11-37.94,18.37-15,7.45-29.8,15.2-44.75,22.69-23.33,11.68-46.74,23.2-70,34.92-3.94,2-7.52,4.65-11.27,7h-1.86C705.11,122.59,705.07,122.22,705,121.86Z" transform="translate(-1 -1)" fill="#f54600"/><path d="M121,1q-2.52,18.78-5,37.55-3,22.22-6.19,44.43a26.79,26.79,0,0,1-.74,2.9l.18,1.29h0l-7.16,1.93c-1.74-.36-3.53-1.15-5.22-1-6.28.62-12.51,1.6-18.77,2.35C71,91.32,63.5,93.88,57,92.36c-6.27-1.46-11,2.5-16.85,1.47C35.55,93,30.52,95.3,25.66,96c-6.24.88-12.52,1.54-18.78,2.3-3.5.42-5,2.06-5,5.93.27,13.65.17,27.31.2,41a8.46,8.46,0,0,1-.11.88c-.34,0-.67,0-1-.06Q1,75.5,1,5A17.63,17.63,0,0,1,2,1c.11,20.53-.17,41.07,1,61.8,4.12-2.62,7.07-5.65,10.33-8.31C20,49,26.92,43.82,33.66,38.43s13.17-10.74,19.8-16S67.07,11.74,73.73,6.26C75.44,4.85,76.59,2.77,78,1Z" transform="translate(-1 -1)" fill="#f99100"/><path d="M143,490.05c0,.32,0,.63,0,.95-16.5,11.69-33.07,23.28-49.48,35.1C82.24,534.24,71.17,542.69,60,551H9L1,534v-1a33.73,33.73,0,0,0,1-5.74c.07-21.72,0-43.45,0-65.17l.05-.15c6.69,1.21,13.39,2.3,20.05,3.64C39,469,55.87,472.6,72.77,476Q107.89,483.12,143,490.05Z" transform="translate(-1 -1)" fill="#f04600"/><path d="M369,103.8c-1.29-1.22-2.4-2.75-3.9-3.61Q314,71,262.82,41.87C239.16,28.34,215.6,14.63,192,1h51c1.12.87,2.1,2.11,3.37,2.54,14.78,5,29.61,9.92,44.41,14.89,13.23,4.45,26.41,9,39.65,13.43,17.81,5.94,35.67,11.73,53.46,17.73,1.88.63,3.43,2.27,5.14,3.45-5,15.28-10,30.59-15.2,45.82-.67,2-2.49,3.57-3.77,5.34Z" transform="translate(-1 -1)" fill="#fe7600"/><path d="M608,551c.87-1.13,1.53-2.58,2.65-3.34q25-16.83,50.11-33.5Q683.35,499.1,705.93,484c20.69-13.86,41.33-27.79,62.05-41.6a58,58,0,0,1,7-3.47c-7.67,16.35-15.39,32.68-23,49.07q-13.15,28.38-26.09,56.85A50,50,0,0,0,724,551Z" transform="translate(-1 -1)" fill="#d62700"/><path d="M789,1c-2.92,5-5.53,10.21-8.83,14.94C770,30.65,759.45,45.16,749.1,59.78,736.53,77.53,724,95.33,711.43,113.05A63.26,63.26,0,0,1,706,119l-1,0q0-59,0-118Z" transform="translate(-1 -1)" fill="#e83900"/><path d="M210,551c4.35-3.33,8.43-7.09,13.09-9.91C241.61,529.9,260.33,519,278.94,508c13.34-7.92,26.63-15.94,39.92-23.94,6.06-3.65,12.09-7.35,18.14-11l35,35c0,.29-.1.58-.14.86l-.9.1c-4,1-8,1.9-11.92,3.18-16,5.26-32,10.64-48.05,16-16.18,5.39-32.38,10.69-48.51,16.22-5.6,1.93-11,4.41-16.51,6.64Z" transform="translate(-1 -1)" fill="#fe5600"/><path d="M389,53c-1.71-1.18-3.26-2.82-5.14-3.45-17.79-6-35.65-11.79-53.46-17.73-13.24-4.41-26.42-9-39.65-13.43-14.8-5-29.63-9.86-44.41-14.89C245.1,3.11,244.12,1.87,243,1H406a34.7,34.7,0,0,1-1,4.81c-4.83,14-9.78,27.87-14.51,41.86-.29.86,1,2.26,1.6,3.4l-.56,2Z" transform="translate(-1 -1)" fill="#fd6900"/><path d="M705,1q0,59,0,118c-3.53-7.47-7.24-14.87-10.56-22.44-3.86-8.8-7.31-17.77-11.08-26.61C677.76,56.71,672,43.53,666.29,30.28,662.13,20.55,658.09,10.76,654,1Z" transform="translate(-1 -1)" fill="#f97100"/><path d="M546,551a43.08,43.08,0,0,0-2-4c-4.17-6.54-8.61-12.92-12.47-19.64-.93-1.61-.71-4.65.19-6.44,6.88-13.7,14.18-27.19,21.11-40.86,4.55-9,8.64-18.19,13-27.24q6.3-12.87,12.87-25.59A30.69,30.69,0,0,1,582,423c-1.08,11.05-2.07,22.1-3.27,33.13-1.82,16.81-3.81,33.59-5.7,50.39q-2.52,22.21-5,44.45Z" transform="translate(-1 -1)" fill="#f99100"/><path d="M60,551c11.17-8.31,22.24-16.76,33.53-24.9,16.41-11.82,33-23.41,49.48-35.1,1.28,4.23,2.91,8.38,3.76,12.7C149,515.06,151,526.49,153,537.9c.77,4.35,1.35,8.73,2,13.1Z" transform="translate(-1 -1)" fill="#fe5f00"/><path d="M524,1a82.91,82.91,0,0,1-3.85,8.46c-8.06,13.54-16.27,27-24.43,40.48L492,50Q457.46,29.31,422.9,8.59c-3.78-2.28-7.27-5-10.9-7.59Z" transform="translate(-1 -1)" fill="#fe9400"/><path d="M412,1c3.63,2.54,7.12,5.31,10.9,7.59Q457.42,29.38,492,50c0,.62-.08,1.25-.13,1.87l-99.77-.78c-.57-1.14-1.89-2.54-1.6-3.4,4.73-14,9.68-27.91,14.51-41.86A34.7,34.7,0,0,0,406,1Z" transform="translate(-1 -1)" fill="#fe5f00"/><path d="M1,307V208l1,0C14,216.2,26,224.5,38.15,232.53c5.76,3.8,11.84,7.11,17.78,10.65V245q-15.33,23-30.72,46.07A18.87,18.87,0,0,1,22,294c-5.34-1.28-5.58-6.54-7.87-10.17C10.55,278.12,7,272.32,3.49,266.54L2.08,267v39.06c0,.29-.09.59-.13.89A4.3,4.3,0,0,0,1,307Z" transform="translate(-1 -1)" fill="#f99100"/><path d="M371.89,508.88c0-.28.09-.57.14-.86l1.91.07c27.12,9.76,54.27,19.45,81.35,29.31,12,4.36,23.81,9.06,35.71,13.6H370Z" transform="translate(-1 -1)" fill="#febb00"/><path d="M78,1c-1.41,1.77-2.56,3.85-4.27,5.26C67.07,11.74,60.2,17,53.46,22.38S40.3,33.12,33.66,38.43,20,49,13.35,54.49C10.09,57.15,7.14,60.18,3,62.8,1.83,42.07,2.11,21.53,2,1Z" transform="translate(-1 -1)" fill="#fe8200"/><path d="M246,551c5.5-2.23,10.91-4.71,16.51-6.64,16.13-5.53,32.33-10.83,48.51-16.22,16-5.34,32-10.72,48.05-16C363,510.88,367,510,371,509a15.32,15.32,0,0,1-1.22,2.73Q355.93,531.38,342,551Z" transform="translate(-1 -1)" fill="#fe7600"/><path d="M961,1h64V21l-1,.48c-.66,0-1.33,0-2,.1L934,34.13l.08-.29q0-.39,0-.78c6.68-7.73,13.41-15.42,20-23.19C956.51,7,958.7,4,961,1Z" transform="translate(-1 -1)" fill="#f99100"/><path d="M934.05,33.06q0,.39,0,.78L881,34,862,1h35c1.75,2.48,3.06,5.52,5.34,7.33,7.23,5.75,14.89,11,22.26,16.54C927.91,27.38,930.91,30.32,934.05,33.06Z" transform="translate(-1 -1)" fill="#fe5f00"/><path d="M934.05,33.06c-3.14-2.74-6.14-5.68-9.45-8.19-7.37-5.59-15-10.79-22.26-16.54C900.06,6.52,898.75,3.48,897,1h64c-2.3,3-4.49,6-6.92,8.87C947.46,17.64,940.73,25.33,934.05,33.06Z" transform="translate(-1 -1)" fill="#fd6900"/><path d="M342,551q13.89-19.63,27.77-39.29A15.32,15.32,0,0,0,371,509l.9-.1L370,551Z" transform="translate(-1 -1)" fill="#f99100"/><path d="M1002,543c0-.67,0-1.34,0-2h0c2.3-2.53,4.93-4.84,6.83-7.65,5.19-7.68,10.07-15.56,15.07-23.36q0,20.5.07,41H998l3-6Z" transform="translate(-1 -1)" fill="#f04600"/><path d="M1025,172V383c-.32,0-.65,0-1,0a7.4,7.4,0,0,1-.12-.93c0-3.67,0-7.34,0-11,0-2.68,0-5.37,0-8.05V262q0-44,0-88l.15-1.94Z" transform="translate(-1 -1)" fill="#c93000"/><path d="M1024,383c.32,0,.65,0,1,0q0,82,0,164a17.63,17.63,0,0,1-1,4q0-20.5-.07-41Q1024,446.51,1024,383Z" transform="translate(-1 -1)" fill="#e84600"/><path d="M1025,172l-.93,0-.12-55-.06-33.19L1024,80h1Z" transform="translate(-1 -1)" fill="#e84600"/><path d="M1,534l8,17H1Z" transform="translate(-1 -1)" fill="#d23000"/><path d="M2,462.09c0,21.72,0,43.45,0,65.17A33.73,33.73,0,0,1,1,533V462A8.28,8.28,0,0,1,2,462.09Z" transform="translate(-1 -1)" fill="#e84600"/><path d="M2,208l-1,0V146c.33,0,.66.05,1,.06Q2,177,2,208Z" transform="translate(-1 -1)" fill="#f97100"/><path d="M1025,80h-1V21.48l1-.48Z" transform="translate(-1 -1)" fill="#a71600"/><path d="M1,412V356a5,5,0,0,0,.94-.06q.08,27.57.16,55.15L2,412.14Z" transform="translate(-1 -1)" fill="#f97100"/><path d="M1,412l1,.14q0,24.9,0,49.8l-.05.15A8.28,8.28,0,0,0,1,462Z" transform="translate(-1 -1)" fill="#c93000"/><path d="M1.94,355.94A5,5,0,0,1,1,356V307a4.3,4.3,0,0,1,1,0Q2,330,2.09,353.06Z" transform="translate(-1 -1)" fill="#c93000"/><path d="M1001,545l-3,6h-8l10-6Z" transform="translate(-1 -1)" fill="#d62700"/><path d="M778,437l-3,0h0c-3.7-7.08-7.34-14.18-11.11-21.22Q746,382.39,728,349q-27.11-50.29-54.23-100.58Q663.88,230.21,654,212c0-1,0-2,0-3.07a2.87,2.87,0,0,1,.83-.12c1.48-.12,3-.19,4.43-.36,13-1.47,26-3,39-4.43,14.16-1.5,28.36-2.72,42.52-4.27q24.93-2.72,49.84-5.81c5.86-.73,11.67-2,17.5-3,2.27-1.12,5-1.76,6.75-3.45q29.14-28.8,58-57.92A68.15,68.15,0,0,0,878,123l3-2h1a79.11,79.11,0,0,0,3.2,7.71c2.59,4.81,5.51,9.43,8.16,14.2,6,10.68,11.68,21.48,17.75,32.09s12.54,21,18.66,31.63c6.62,11.44,13.07,23,19.53,34.52A11.08,11.08,0,0,1,950,244c-18.5-6.79-37-13.47-55.51-20.39-22.82-8.55-45.55-17.33-68.35-26-4.37-1.66-8.86-3-13.29-4.54l-1.18,1.26c1.18,2.94,2.33,5.89,3.53,8.81,4,9.81,7.94,19.66,12.12,29.4,3.66,8.52,7.76,16.85,11.44,25.36Q849,281.67,859,305.54c1.39,3.35,2.1,7,3.13,10.5-5.83,8.29-11.6,16.63-17.5,24.88q-32,44.85-64.11,89.67c-1.16,1.62-1.64,3.73-2.44,5.61C778,436.47,778,436.73,778,437Z" transform="translate(-1 -1)" fill="#f54600"/><path d="M778,437c0-.26,0-.52.06-.79l136.81-68.41L864,315.89c.25-.77.26-1.83.79-2.26q14.83-12.11,29.78-24.06c12-9.63,24-19.31,36.19-28.76C937,256,943.56,251.58,950,247c-2,7.38-3.9,14.77-6,22.12-8.68,30.4-17.45,60.79-26.09,91.2-.69,2.44-.65,5.09-1,7.64L918,369a42.26,42.26,0,0,0,2.09,6.57c7.11,14.21,14.41,28.32,21.53,42.52,6.37,12.71,12.59,25.5,18.87,38.27,4.82,9.79,9.55,19.63,14.46,29.38,4.69,9.31,9.73,18.45,14.32,27.81,4.44,9.06,8.51,18.3,12.75,27.46h0c-8.06-3.43-16.18-6.71-24.16-10.3-13.79-6.2-27.49-12.57-41.22-18.9q-23.69-10.94-47.33-22c-17.16-8-34.21-16.25-51.42-24.16-14-6.43-28.17-12.51-42.26-18.75-5-2.21-10-4.32-14.85-6.72C779.57,439.63,778.88,438.09,778,437Z" transform="translate(-1 -1)" fill="#df3000"/><path d="M1001,545l-1,0,2-2Z" transform="translate(-1 -1)" fill="#df3000"/><path d="M335.92,469.06c-3.93-5.63-8.12-11.1-11.72-16.93-8-12.94-15.75-26-23.52-39.13-5.31-8.95-10.46-18-15.69-27-1.36-2.07-2.75-4.11-4.08-6.19-3.89-6.11-7.65-12.31-11.67-18.33-4.73-7.12-9.61-14.13-14.55-21.1-2.06-2.92-4.44-5.61-6.68-8.41a17.72,17.72,0,0,0-1.58-3.51c-9-12.25-18-24.53-27.25-36.64-6.9-9.07-14.11-17.9-21.18-26.84l-2-1c0-.33,0-.67,0-1l0-4c5.92-.68,7.51-6.13,10.42-9.86,10.26-13.18,20.21-26.6,30.2-40,3.9-5.22,7.6-10.6,11.58-16.16a19.56,19.56,0,0,0-3.62-1.92c-14.57-3.73-29.2-7.25-43.73-11.15-6.46-1.74-12.72-4.23-19.07-6.39,1.53-.63,3-1.32,4.6-1.89q62.3-22.75,124.6-45.46c18-6.52,36-12.8,54-19.19-1.11,1.52-1.93,3.42-3.37,4.5-5.27,4-10.84,7.54-16.13,11.49C336,130.09,326.7,137.59,317,144.5s-19.7,13-29.38,19.79c-8.26,5.77-16.23,12-24.34,18-3.32,2.46-6.65,4.9-10,7.35l.4,1.73c6.83.89,13.63,2,20.48,2.62,13.13,1.22,26.3,2.08,39.44,3.27,16.47,1.5,32.92,3.21,49.38,4.77q20.69,2,41.37,3.82c12.2,1.09,24.41,2.13,36.61,3.2l0,1.91q-17.79,15.54-35.6,31.09-25.91,22.53-51.86,45c-15.27,13.28-30.55,26.55-45.69,40-1.73,1.54-2.64,4-3.93,6-.16,1.89-.82,3.91-.39,5.66,2.05,8.38,4.51,16.66,6.62,25q10.78,42.75,21.4,85.54C333.14,455.79,334.46,462.44,335.92,469.06ZM251.56,198.74l-1.56.42V325c0,1.16-.36,2.56.16,3.44.79,1.37,2.18,3.37,3.34,3.39q22,.36,44,0c.92,0,2.82-2.52,2.56-3.28q-5.7-16.69-11.95-33.21c-4.5-11.86-9.39-23.57-13.84-35.44-6.09-16.3-11.91-32.69-17.89-49C254.84,206.77,253.16,202.77,251.56,198.74Z" transform="translate(-1 -1)" fill="#fd6900"/><path d="M335.92,469.06c-1.46-6.62-2.78-13.27-4.41-19.85q-10.61-42.79-21.4-85.54c-2.11-8.37-4.57-16.65-6.62-25-.43-1.75.23-3.77.39-5.66,5.89,1.51,11.83,2.81,17.64,4.57,7.57,2.3,15,5.08,22.56,7.44,13.06,4.08,26.18,7.91,39.23,12,7.89,2.47,15.69,5.2,23.52,7.81,4.23,1.41,8.42,2.94,12.69,4.18,10,2.91,20,5.55,29.9,8.54,8.06,2.43,16,5.3,24,7.81C486,389.26,498.65,393,511.22,397c7.72,2.42,15.36,5.1,23,7.64,4.54,1.51,9.07,3.05,13.64,4.45,9.61,3,19.26,5.8,28.86,8.8A13.88,13.88,0,0,1,580,420c-4.69,2-9.35,4.1-14.06,6.06-19.21,8-38.47,16-57.66,24.08-10.07,4.26-20,8.92-30,13.19-5.46,2.33-11.18,4-16.65,6.35-18.73,7.88-37.39,15.93-56.1,23.87-9.71,4.13-19.47,8.14-29.17,12.3-.95.41-1.61,1.5-2.4,2.27L372,508l-35-35Z" transform="translate(-1 -1)" fill="#fe8200"/><path d="M2,461.94q0-24.9,0-49.8c0-.35.06-.7.1-1.05a48,48,0,0,0,3.76-3.93c6-7.73,11.84-15.56,17.85-23.27q24-30.81,48.12-61.53c6.23-7.93,12.69-15.69,19-23.52,3.63,11.48,7.5,22.89,10.83,34.46,3.71,12.89,6.9,25.93,10.38,38.89q7.44,27.75,15,55.47c2.15,7.89,4.68,15.67,6.81,23.55,2.89,10.65,5.51,21.36,8.4,32,.21.77,1.7,1.19,2.6,1.77l.1,1c-.66,1.35-1.31,2.7-2,4.06q-35.13-7-70.25-14c-16.9-3.42-33.78-7-50.68-10.44C15.43,464.24,8.73,463.15,2,461.94Z" transform="translate(-1 -1)" fill="#d23000"/><path d="M145,486c0-.34-.07-.67-.1-1a5.38,5.38,0,0,0,.14-1l3-4c1.05-.74,2.37-1.27,3.08-2.26,4.73-6.56,9.46-13.13,13.94-19.86,3.65-5.49,6.81-11.3,10.47-16.77,6.61-9.87,13.51-19.54,20.12-29.41,4-6,7.64-12.33,11.67-18.35,6.79-10.13,13.85-20.09,20.65-30.22,3.85-5.74,7.37-11.7,11.11-17.52,2.94-4.58,6-9.09,9-13.63,2.24,2.8,4.62,5.49,6.68,8.41,4.94,7,9.82,14,14.55,21.1,4,6,7.78,12.22,11.67,18.33,1.33,2.08,2.72,4.12,4.08,6.19-3,1.88-6.22,3.56-9.09,5.67q-15,11-29.77,22.32c-6.31,4.83-12.32,10-18.64,14.85-7.25,5.52-14.73,10.73-22.05,16.15q-15.56,11.5-31,23.15c-7.26,5.46-14.31,11.22-21.77,16.39C150.71,485.89,147.58,485.55,145,486Z" transform="translate(-1 -1)" fill="#fe5600"/><path d="M365,107c-18,6.39-36.06,12.67-54,19.19q-62.34,22.63-124.6,45.46c-1.56.57-3.07,1.26-4.6,1.9a2.46,2.46,0,0,0-.79.48l-2.75-.33c-11.68-14.71-23.32-29.47-35.07-44.13-10.91-13.62-21.95-27.14-32.94-40.71l-1-1.68h0a.9.9,0,0,0,.68-.25q53.82,3.42,107.64,6.86,41.35,2.64,82.72,5.33c22.92,1.51,45.84,3.13,68.75,4.7l1.07.4c0,.23,0,.47-.06.7Z" transform="translate(-1 -1)" fill="#a71600"/><path d="M109.88,86.91a.9.9,0,0,1-.68.25L109,85.88Z" transform="translate(-1 -1)" fill="#fe5f00"/><path d="M654,212q9.87,18.23,19.73,36.43Q700.85,298.71,728,349q18,33.38,35.94,66.78c3.77,7,7.41,14.14,11.11,21.22-15.21-1.22-30.42-2.39-45.63-3.68-12.06-1-24.12-2.22-36.18-3.32-17.5-1.61-35-3.24-52.52-4.79-16.7-1.47-33.4-2.83-50.09-4.25-2.81-.23-5.61-.52-8.41-.78L582,420c0-.65,0-1.29,0-1.94.64-.74,1.56-1.39,1.86-2.25,4.73-13.46,9.47-26.92,14-40.45,4.12-12.27,7.89-24.65,12-36.92,3.84-11.49,8-22.86,11.86-34.34C626,291.3,630,278.47,634.14,265.7c4.1-12.61,8.07-25.27,12.5-37.77C648.59,222.44,651.51,217.3,654,212Z" transform="translate(-1 -1)" fill="#fe7600"/><path d="M502.06,54.82c16.89,5.36,33.83,10.61,50.68,16.12,25.71,8.42,51.36,17,77,25.56q35.67,11.88,71.31,23.83a9.49,9.49,0,0,1,2.07,1.34c-9.12,3.43-18.19,7-27.38,10.24-6.09,2.15-12.4,3.65-18.52,5.72-9.69,3.3-19.27,6.93-29,10.24-9.08,3.09-18.23,5.92-27.35,8.88-12.59,4.09-25.23,8.06-37.75,12.37-4.55,1.56-8.82,3.93-13.22,5.93h-2l-1-1c.71-7.63-3.32-14-6.22-20.43-1.61-3.58-2.82-7.46-6-10.91-3.6-4-2.76-11.53-8.26-15.4-.49-.35-.46-1.55-.52-2.36-.38-4.88.22-9.37-3.37-14.21-4-5.46-5.29-13-7.86-19.57-.31-.81-1.33-1.32-1.87-2.08a26.87,26.87,0,0,1-2.9-4.57c-1.59-3.64-2-8.6-4.65-10.77-2.9-2.34-3.42-4.4-3.39-7.41C502,62.46,502,58.64,502.06,54.82Z" transform="translate(-1 -1)" fill="#f98200"/><path d="M550,175.05c4.4-2,8.67-4.37,13.22-5.93,12.52-4.31,25.16-8.28,37.75-12.37,9.12-3,18.27-5.79,27.35-8.88,9.69-3.31,19.27-6.94,29-10.24,6.12-2.07,12.43-3.57,18.52-5.72,9.19-3.24,18.26-6.81,27.38-10.24l1.88.19c0,.36.08.73.11,1.09-3.59,5.57-7.33,11-10.73,16.71Q680.06,163.56,666,187.6c-3.77,6.4-7.33,12.92-11,19.39l-.21,1.82a2.87,2.87,0,0,0-.83.12C643,205.64,632,202.5,621.16,199c-14.54-4.65-29-9.51-43.47-14.37C568.42,181.53,559.21,178.25,550,175.05Z" transform="translate(-1 -1)" fill="#fe9400"/><path d="M502.06,54.82c0,3.82,0,7.64-.06,11.46,0,3,.49,5.07,3.39,7.41,2.69,2.17,3.06,7.13,4.65,10.77a26.87,26.87,0,0,0,2.9,4.57c.54.76,1.56,1.27,1.87,2.08,2.57,6.59,3.81,14.11,7.86,19.57,3.59,4.84,3,9.33,3.37,14.21.06.81,0,2,.52,2.36,5.5,3.87,4.66,11.43,8.26,15.4,3.14,3.45,4.35,7.33,6,10.91,2.9,6.44,6.93,12.8,6.22,20.43-14.46-2.71-28.94-5.35-43.39-8.16-14.77-2.86-29.52-5.89-44.27-8.85-.13-.65-.26-1.31-.38-2,1-1.59,2.35-3.06,2.94-4.78,5.94-17.43,11.75-34.9,17.59-52.36,4.58-13.69,9.21-27.36,13.59-41.12.44-1.37-.75-3.26-1.18-4.91.05-.62.09-1.25.13-1.87l3.69,0Z" transform="translate(-1 -1)" fill="#fe8200"/><path d="M582,418c0,.65,0,1.29,0,1.94l-2,0a13.88,13.88,0,0,0-3.23-2.13c-9.6-3-19.25-5.84-28.86-8.8-4.57-1.4-9.1-2.94-13.64-4.45-7.69-2.54-15.33-5.22-23-7.64-12.57-3.95-25.21-7.69-37.78-11.63-8-2.51-16-5.38-24-7.81-9.92-3-19.95-5.63-29.9-8.54-4.27-1.24-8.46-2.77-12.69-4.18-7.83-2.61-15.63-5.34-23.52-7.81-13.05-4.08-26.17-7.91-39.23-12-7.56-2.36-15-5.14-22.56-7.44-5.81-1.76-11.75-3.06-17.64-4.57,1.29-2,2.2-4.48,3.93-6,15.14-13.41,30.42-26.68,45.69-40q25.9-22.51,51.86-45Q423.2,226.5,441,210.92c1.58,1.28,3.6,2.27,4.69,3.89C455.87,230,465.87,245.25,476,260.42c8.59,12.83,17.43,25.49,26,38.35,12.79,19.22,25.4,38.55,38.13,57.81,9.62,14.54,19.2,29.1,29,43.52,4,5.84,8.5,11.32,12.78,17C581.94,417.38,582,417.69,582,418Z" transform="translate(-1 -1)" fill="#fe9400"/><path d="M881,121l-3,2a35.07,35.07,0,0,0-4.93.54c-21.9,5.5-43.77,11.08-65.67,16.58Q777.72,147.59,748,155c.46-6.75,5.55-9.26,10.64-12,2-1.09,3.69-3,5.39-4.62,1.29-1.26,2.22-2.88,3.56-4.06,3.94-3.46,8.11-6.67,12-10.19,8-7.21,15.65-14.71,23.73-21.77,3.29-2.88,7.58-4.6,11-7.4,4.78-4,9.13-8.46,13.65-12.73.1-.09,0-.36.09-.48a18.49,18.49,0,0,1,2.49-3.43c6.37-5.57,12.82-11.06,19.27-16.55,7-6,14.1-12,21.23-17.93,1.73-1.44,2.89-2.53,0-3.84l10-5Z" transform="translate(-1 -1)" fill="#f94900"/><path d="M871,40c2.87,1.31,1.71,2.4,0,3.84-7.13,5.92-14.18,11.93-21.23,17.93-6.45,5.49-12.9,11-19.27,16.55A18.49,18.49,0,0,0,828,81.74c-.09.12,0,.39-.09.48C823.38,86.49,819,91,814.25,95c-3.37,2.8-7.66,4.52-11,7.4-8.08,7.06-15.77,14.56-23.73,21.77-3.88,3.52-8.05,6.73-12,10.19-1.34,1.18-2.27,2.8-3.56,4.06-1.7,1.65-3.35,3.53-5.39,4.62-5.09,2.72-10.18,5.23-10.64,12l-6,2.06L739,156c-2.13-2.28-4.22-4.62-6.41-6.86Q719.84,136,707,123c3.75-2.34,7.33-5,11.27-7,23.3-11.72,46.71-23.24,70-34.92,15-7.49,29.78-15.24,44.75-22.69C845.64,52.1,858.34,46.1,871,40Z" transform="translate(-1 -1)" fill="#fb4f00"/><path d="M707,123q12.81,13.08,25.62,26.16c2.19,2.24,4.28,4.58,6.41,6.86-3.25,2.47-6.34,5.21-9.8,7.34q-19.11,11.75-38.43,23.13c-11.87,7-23.87,13.71-35.81,20.54,3.65-6.47,7.21-13,11-19.39q14.13-24,28.44-47.94c3.4-5.67,7.14-11.14,10.73-16.71Z" transform="translate(-1 -1)" fill="#fd7100"/><path d="M881,121l0-86,0-1,53.06-.19-.08.29c0,.31,0,.62-.06.92-2.63,3.78-5.48,7.42-7.86,11.36q-18.39,30.35-36.55,60.85c-2.67,4.48-5,9.16-7.54,13.75l0,0Z" transform="translate(-1 -1)" fill="#e33400"/><path d="M109.24,87.17l1,1.68c-1.8,4.15-3.78,8.23-5.35,12.46-3.73,10-7.4,20.06-10.83,30.18-1.9,5.62-3,11.5-4.94,17.13-3.58,10.59-7.56,21-11.17,31.62-1.92,5.62-3.25,11.45-5.15,17.07C69.32,207.58,65.61,217.78,62,228c-2.38,1-3.58,2.43-2,5v2q-2,4.08-4.07,8.18c-5.94-3.54-12-6.85-17.78-10.65C26,224.5,14,216.2,2,208q0-31,0-62a8.46,8.46,0,0,0,.11-.88c8-4.23,16.14-8.35,24.1-12.71,16.85-9.25,33.69-18.52,50.41-28,8.62-4.89,17-10.23,25.46-15.37Z" transform="translate(-1 -1)" fill="#fe5f00"/><path d="M102.08,89.1c-8.48,5.14-16.84,10.48-25.46,15.37-16.72,9.48-33.56,18.75-50.41,28-8,4.36-16.06,8.48-24.1,12.71,0-13.66.07-27.32-.2-41-.07-3.87,1.47-5.51,5-5.93,6.26-.76,12.54-1.42,18.78-2.3,4.86-.68,9.89-2.94,14.44-2.15C46,94.86,50.68,90.9,57,92.36c6.55,1.52,14.06-1,21.14-1.9,6.26-.75,12.49-1.73,18.77-2.35C98.55,88,100.34,88.74,102.08,89.1Z" transform="translate(-1 -1)" fill="#fe9400"/><path d="M370,104.9c0-.23,0-.47.06-.7,1.28-1.77,3.1-3.36,3.77-5.34C379,83.63,384,68.32,389,53l2.55.06c1,1.7,2,3.44,3.11,5.1Q423.6,101.63,452.5,145c2.09,3.15,3.78,6.56,5.65,9.84a14.11,14.11,0,0,1-3.28-1c-18.58-11.07-37.09-22.26-55.69-33.3-8.41-5-17-9.7-25.48-14.54Z" transform="translate(-1 -1)" fill="#f04600"/><path d="M458.15,154.88c-1.87-3.28-3.56-6.69-5.65-9.84q-28.85-43.45-57.81-86.84c-1.1-1.66-2.08-3.4-3.11-5.1.18-.68.36-1.35.55-2l99.77.78c.43,1.65,1.62,3.54,1.18,4.91-4.38,13.76-9,27.43-13.59,41.12-5.84,17.46-11.65,34.93-17.59,52.36C461.31,152,460,153.43,459,155A7.62,7.62,0,0,0,458.15,154.88Z" transform="translate(-1 -1)" fill="#fda600"/><path d="M55.93,243.18q2-4.1,4.07-8.18c-.2,1.74-.39,3.49-.69,6.23a44.25,44.25,0,0,0,5.5-2.18c10-5.67,20-11.44,29.93-17.14q17-9.74,34.07-19.42c9.41-5.33,18.9-10.51,28.25-15.94,7.14-4.14,14.13-8.56,21.18-12.86L181,174c0,2.33,0,4.66,0,7-1.27,1.83-3.37,3.53-3.69,5.52-2,12.1-3.56,24.27-5.29,36.41-1.93,13.48-4,26.93-5.77,40.43-1.31,10.18-2.17,20.42-3.23,30.63L161.93,297a8.61,8.61,0,0,0-.88,0l-2.9-.17c-.85-1.12-1.46-2.7-2.58-3.3-7.78-4.08-15.67-8-23.53-11.9-17.64-8.83-35.25-17.72-52.95-26.44C71.83,251.57,64.38,248.38,57,245l-1.08,0Z" transform="translate(-1 -1)" fill="#fd6900"/><path d="M55.94,245,57,245a4.88,4.88,0,0,0,.4,1.42c8.63,12.89,17.36,25.71,25.9,38.65,2.5,3.79,4.49,7.92,6.72,11.9L22,297l.05-3a18.87,18.87,0,0,0,3.18-3Q40.66,268.06,55.94,245Z" transform="translate(-1 -1)" fill="#fe5f00"/><path d="M2.09,353.06Q2,330,2,307c0-.3.09-.6.13-.89l18.75-9c-3.32,10.4-6.55,20.83-10,31.18C8.06,336.59,5,344.81,2.09,353.06Z" transform="translate(-1 -1)" fill="#d23000"/><path d="M20.83,297.11l-18.75,9V267l1.41-.47c3.55,5.78,7.06,11.58,10.68,17.32,2.29,3.63,2.53,8.89,7.87,10.17,0,1,0,2-.05,3Z" transform="translate(-1 -1)" fill="#fe8200"/><path d="M933.94,35.05c0-.3,0-.61.06-.92l88.07-12.55c.64-.09,1.31-.07,2-.1V80l-.15,3.82c-.72.64-1.71,1.14-2.12,1.93-6,11.72-11.9,23.48-17.83,35.23-.32,0-.63,0-.94,0-.32-.33-.63-.66-.94-1Q983,96.09,963.87,72.21,948.95,53.6,933.94,35.05Z" transform="translate(-1 -1)" fill="#c11f00"/><path d="M1002,541c-4.24-9.16-8.31-18.4-12.75-27.46-4.59-9.36-9.63-18.5-14.32-27.81-4.91-9.75-9.64-19.59-14.46-29.38-6.28-12.77-12.5-25.56-18.87-38.27-7.12-14.2-14.42-28.31-21.53-42.52A42.26,42.26,0,0,1,918,369h0a22.46,22.46,0,0,1,3.77,1.11q44.19,22.06,88.36,44.18c3.18,1.59,6.46,3,10.89,5.05-2.15-6.32-4-11.41-5.61-16.55-3.58-11.25-7.06-22.53-10.59-33.8l1.1,0,18,13.06a7.4,7.4,0,0,0,.12.93q0,63.48-.1,127c-5,7.8-9.88,15.68-15.07,23.36C1007,536.16,1004.33,538.47,1002,541Z" transform="translate(-1 -1)" fill="#f94900"/><path d="M1023.93,262V363L1004,367h-1c-.82-2.53-1.45-5.15-2.5-7.58-5.85-13.58-11.83-27.1-17.71-40.67-7.59-17.53-15.19-35.06-22.66-52.64-2.92-6.87-5.48-13.9-8.2-20.85L952,245h2c11.68,3,23.33,6,35,8.88S1012.29,259.27,1023.93,262Z" transform="translate(-1 -1)" fill="#cd2700"/><path d="M1023.93,262c-11.64-2.69-23.29-5.27-34.89-8.08S965.68,248,954,245v-3q16.15-16.11,32.31-32.21c10.77-10.76,21.5-21.57,32.34-32.26,1.48-1.46,3.5-2.38,5.27-3.55Q1023.92,218,1023.93,262Z" transform="translate(-1 -1)" fill="#e33400"/><path d="M1023.92,174c-1.77,1.17-3.79,2.09-5.27,3.55-10.84,10.69-21.57,21.5-32.34,32.26S964.77,231.26,954,242h-2c1.92-4,4-8,5.72-12.11,5.08-11.84,10-23.75,15.08-35.59,2.93-6.85,6.07-13.6,9-20.45,5-11.73,10-23.46,14.77-35.26,2.35-5.79,4.3-11.74,6.44-17.62.31,0,.62,0,.94,0,3.33-.64,6.66-1.28,10-1.94s6.68-1.35,10-2l.12,55Z" transform="translate(-1 -1)" fill="#f94900"/><path d="M1023.91,382.09l-18-13.06a15.67,15.67,0,0,1,3.64-.31c4.81.69,9.59,1.55,14.38,2.36C1023.94,374.75,1023.92,378.42,1023.91,382.09Z" transform="translate(-1 -1)" fill="#cd2700"/><path d="M1024,371.08c-4.79-.81-9.57-1.67-14.38-2.36a15.67,15.67,0,0,0-3.64.31l-1.09,0-.84-2,19.93-4C1023.94,365.71,1023.94,368.4,1024,371.08Z" transform="translate(-1 -1)" fill="#e83900"/><path d="M1024,117c-3.34.68-6.68,1.37-10,2s-6.66,1.3-10,1.94c5.93-11.75,11.84-23.51,17.83-35.23.41-.79,1.4-1.29,2.12-1.93Z" transform="translate(-1 -1)" fill="#f54600"/><path d="M20.83,297.11,22,297,90,297l1.08,0-.24,1.82c-6.36,7.83-12.82,15.59-19,23.52q-24.15,30.7-48.12,61.53c-6,7.71-11.86,15.54-17.85,23.27a48,48,0,0,1-3.76,3.93Q2,383.52,1.94,355.94l.15-2.88c2.92-8.25,6-16.47,8.74-24.77C14.28,317.94,17.51,307.51,20.83,297.11Z" transform="translate(-1 -1)" fill="#fd6900"/><path d="M582,418c0-.32,0-.63-.06-.95-.09-1.49-.06-3-.28-4.47-2.52-16.86-5.19-33.7-7.59-50.58-2.89-20.33-5.45-40.7-8.34-61-2.43-17.05-5.19-34-7.67-51.08-2-14-3.91-27.94-5.79-41.92-1.47-11-2.83-22-4.24-32.94h2c9.24,3.2,18.45,6.48,27.72,9.6,14.46,4.86,28.93,9.72,43.47,14.37C632,202.5,643,205.64,654,208.93c0,1,0,2,0,3.07-2.48,5.3-5.4,10.44-7.35,15.93-4.43,12.5-8.4,25.16-12.5,37.77-4.16,12.77-8.17,25.6-12.43,38.35-3.83,11.48-8,22.85-11.86,34.34-4.1,12.27-7.87,24.65-12,36.92-4.54,13.53-9.28,27-14,40.45C583.55,416.62,582.63,417.27,582,418Z" transform="translate(-1 -1)" fill="#fe5f00"/><path d="M1003,121c-2.14,5.88-4.09,11.83-6.44,17.62-4.8,11.8-9.78,23.53-14.77,35.26-2.92,6.85-6.06,13.6-9,20.45-5.07,11.84-10,23.75-15.08,35.59C956,234,953.92,238,952,242v3l-.08.27a5.19,5.19,0,0,0-.88-.13L950,244a11.08,11.08,0,0,0-.72-2.87c-6.46-11.53-12.91-23.08-19.53-34.52-6.12-10.6-12.59-21-18.66-31.63s-11.8-21.41-17.75-32.09c-2.65-4.77-5.57-9.39-8.16-14.2A79.11,79.11,0,0,1,882,121l0,0q56.91,0,113.82,0a39.65,39.65,0,0,0,6.25-1C1002.37,120.31,1002.68,120.64,1003,121Z" transform="translate(-1 -1)" fill="#e33400"/><path d="M950,244l1,1.12L950,247c-6.4,4.6-13,9-19.17,13.83-12.17,9.45-24.16,19.13-36.19,28.76q-14.94,12-29.78,24.06c-.53.43-.54,1.49-.79,2.26l-1.95.15c-1-3.51-1.74-7.15-3.13-10.5Q849,281.67,838.79,258c-3.68-8.51-7.78-16.84-11.44-25.36-4.18-9.74-8.1-19.59-12.12-29.4-1.2-2.92-2.35-5.87-3.53-8.81l1.18-1.26c4.43,1.5,8.92,2.88,13.29,4.54,22.8,8.62,45.53,17.4,68.35,26C913,230.54,931.53,237.22,950,244Z" transform="translate(-1 -1)" fill="#ec3d00"/><path d="M862.08,316l1.95-.15,50.81,51.9L778,436.2c.8-1.88,1.28-4,2.44-5.61q32-44.88,64.11-89.67C850.48,332.67,856.25,324.33,862.08,316Z" transform="translate(-1 -1)" fill="#f07a4d"/><path d="M741.94,157l6-2.06q29.71-7.42,59.41-14.86c21.9-5.5,43.77-11.08,65.67-16.58A35.07,35.07,0,0,1,878,123a68.15,68.15,0,0,1-5.17,6.61q-28.91,29.07-58,57.92c-1.72,1.69-4.48,2.33-6.76,3.45-14.55-7.34-29.12-14.64-43.63-22.05C756.88,165.06,749.43,161,741.94,157Z" transform="translate(-1 -1)" fill="#e83900"/><path d="M741.94,157c7.49,4,14.94,8,22.5,11.89,14.51,7.41,29.08,14.71,43.63,22.05-5.82,1-11.63,2.24-17.49,3q-24.9,3.09-49.84,5.81c-14.16,1.55-28.36,2.77-42.52,4.27-13,1.39-26,3-39,4.43-1.47.17-3,.24-4.43.36L655,207c11.94-6.83,23.94-13.56,35.81-20.54q19.34-11.35,38.43-23.13c3.46-2.13,6.55-4.87,9.8-7.34Z" transform="translate(-1 -1)" fill="#fe5f00"/><path d="M950,247l1.08-1.85a5.19,5.19,0,0,1,.88.13c2.72,7,5.28,14,8.2,20.85,7.47,17.58,15.07,35.11,22.66,52.64,5.88,13.57,11.86,27.09,17.71,40.67,1,2.43,1.68,5.05,2.5,7.58q-39.33,0-78.66.05a44.91,44.91,0,0,0-6.28.86l-1.13,0c.3-2.55.26-5.2,1-7.64,8.64-30.41,17.41-60.8,26.09-91.2C946.06,261.75,948,254.36,950,247Z" transform="translate(-1 -1)" fill="#a71600"/><path d="M916.92,367.94l1.13,0c0,.36,0,.72,0,1.08h0Z" transform="translate(-1 -1)" fill="#f94900"/><path d="M548,175c1.41,11,2.77,22,4.24,32.94,1.88,14,3.76,28,5.79,41.92,2.48,17,5.24,34,7.67,51.08,2.89,20.33,5.45,40.7,8.34,61,2.4,16.88,5.07,33.72,7.59,50.58.22,1.47.19,3,.28,4.47-4.28-5.64-8.8-11.12-12.78-17-9.8-14.42-19.38-29-29-43.52C527.42,337.32,514.81,318,502,298.77c-8.55-12.86-17.39-25.52-26-38.35-10.17-15.17-20.17-30.46-30.38-45.61-1.09-1.62-3.11-2.61-4.69-3.89l0-1.91v-.93l1.85-.15a62.23,62.23,0,0,0,5.79-3c7-4.65,12.95-9.53,11.59-19.72-1-7.26.36-14.82.46-22.26,0-1.28-1-2.57-1.52-3.86.06-.7.11-1.39.17-2.09,14.75,3,29.5,6,44.27,8.85,14.45,2.81,28.93,5.45,43.39,8.16Z" transform="translate(-1 -1)" fill="#fe7600"/><path d="M441,208.08V209c-12.2-1.07-24.41-2.11-36.61-3.2Q383.71,204,363,202c-16.46-1.56-32.91-3.27-49.38-4.77C300.5,196,287.33,195.17,274.2,194c-6.85-.63-13.65-1.73-20.48-2.62l-.4-1.73c3.33-2.45,6.66-4.89,10-7.35,8.11-6,16.08-12.19,24.34-18,9.68-6.76,19.77-12.94,29.38-19.79S336,130.09,345.5,123c5.29-4,10.86-7.52,16.13-11.49,1.44-1.08,2.26-3,3.37-4.5l5-2.09,3.7,1.1c1,1.72,1.93,3.49,3,5.14Q408.85,159.62,441,208.08Z" transform="translate(-1 -1)" fill="#f97100"/><path d="M161.05,297a8.61,8.61,0,0,1,.88,0L164,294l2-1,3-3q2.49-2.5,5-5l3-3q2.49-2.5,5-5l3-3,5-5,2-2,2-2,2-1,2,1c-.6,2-1.21,4-1.89,6.31,6.12,1.1,5.79,6,6.86,10.07,1.55,5.91,3,11.86,4.9,17.65,1.68,5.15,4,10.09,5.87,15.17a4.47,4.47,0,0,1-.11,2.93c-4.24,10.8-8.5,21.59-12.89,32.34-7.13,17.49-14.44,34.9-21.51,52.42-4,9.86-7.47,19.91-11.43,29.77-6.49,16.16-13.19,32.24-19.8,48.35l-3,4c-.25-.59-.77-1.21-.72-1.77,1.25-13.2,2.58-26.39,3.84-39.59q3-30.94,5.86-61.9,1.69-18.33,3.24-36.67C158.56,328.37,159.79,312.67,161.05,297Z" transform="translate(-1 -1)" fill="#f94900"/><path d="M148,480c6.61-16.11,13.31-32.19,19.8-48.35,4-9.86,7.46-19.91,11.43-29.77,7.07-17.52,14.38-34.93,21.51-52.42,4.39-10.75,8.65-21.54,12.89-32.34a4.47,4.47,0,0,0,.11-2.93c-1.89-5.08-4.19-10-5.87-15.17-1.9-5.79-3.35-11.74-4.9-17.65-1.07-4.08-.74-9-6.86-10.07.68-2.29,1.29-4.3,1.89-6.31,7.07,8.94,14.28,17.77,21.18,26.84,9.21,12.11,18.21,24.39,27.25,36.64A17.72,17.72,0,0,1,248,332c-3,4.54-6,9-9,13.63-3.74,5.82-7.26,11.78-11.11,17.52-6.8,10.13-13.86,20.09-20.65,30.22-4,6-7.63,12.33-11.67,18.35-6.61,9.87-13.51,19.54-20.12,29.41-3.66,5.47-6.82,11.28-10.47,16.77-4.48,6.73-9.21,13.3-13.94,19.86C150.37,478.73,149.05,479.26,148,480Z" transform="translate(-1 -1)" fill="#fb4f00"/><path d="M251.56,198.74c1.6,4,3.28,8,4.78,12.1,6,16.34,11.8,32.73,17.89,49,4.45,11.87,9.34,23.58,13.84,35.44q6.26,16.5,11.95,33.21c.26.76-1.64,3.27-2.56,3.28q-22,.31-44,0c-1.16,0-2.55-2-3.34-3.39-.52-.88-.16-2.28-.16-3.44V199.16Z" transform="translate(-1 -1)" fill="#f97100"/><path d="M181,181c0-2.33,0-4.66,0-7a2.46,2.46,0,0,1,.79-.48c6.35,2.15,12.61,4.64,19.07,6.38,14.53,3.9,29.16,7.42,43.73,11.15A19.56,19.56,0,0,1,248.2,193c-4,5.56-7.68,10.94-11.58,16.16-10,13.39-19.94,26.81-30.2,40-2.91,3.73-4.5,9.18-10.42,9.86a17.13,17.13,0,0,1-.8-2.35c-3-15.43-6-30.84-8.83-46.28-1.57-8.44-2.93-16.91-4.39-25.36l-1-2Z" transform="translate(-1 -1)" fill="#fe7600"/><path d="M182,185c1.46,8.45,2.82,16.92,4.39,25.36,2.87,15.44,5.86,30.85,8.83,46.28A17.13,17.13,0,0,0,196,259c0,1.32,0,2.64,0,4l-2,2c-.67.66-1.34,1.33-2,2s-1.34,1.33-2,2q-2.5,2.49-5,5l-3,3q-2.5,2.49-5,5l-3,3q-2.5,2.49-5,5l-3,3-2,1h-1c1.06-10.21,1.92-20.45,3.23-30.63,1.74-13.5,3.84-27,5.77-40.43,1.73-12.14,3.3-24.31,5.29-36.41.32-2,2.42-3.69,3.69-5.52,0,.67,0,1.33,0,2Z" transform="translate(-1 -1)" fill="#fe5f00"/><path d="M194,265l2-2c0,.33,0,.67,0,1Z" transform="translate(-1 -1)" fill="#fb4f00"/><path d="M161.05,297c-1.26,15.71-2.49,31.41-3.8,47.11q-1.53,18.35-3.24,36.67-2.88,31-5.86,61.9c-1.26,13.2-2.59,26.39-3.84,39.59-.05.56.47,1.18.72,1.77a5.38,5.38,0,0,1-.14,1c-.9-.58-2.39-1-2.6-1.77-2.89-10.64-5.51-21.35-8.4-32-2.13-7.88-4.66-15.66-6.81-23.55q-7.59-27.71-15-55.47c-3.48-13-6.67-26-10.38-38.89-3.33-11.57-7.2-23-10.83-34.46l.24-1.82,67-.23Z" transform="translate(-1 -1)" fill="#c93000"/><path d="M178.24,173.69c-7.05,4.3-14,8.72-21.18,12.86-9.35,5.43-18.84,10.61-28.25,15.94q-17.06,9.67-34.07,19.42c-10,5.7-19.93,11.47-29.93,17.14a44.25,44.25,0,0,1-5.5,2.18c.3-2.74.49-4.49.69-6.23v-2l2-5c3.61-10.22,7.32-20.42,10.79-30.69,1.9-5.62,3.23-11.45,5.15-17.07,3.61-10.58,7.59-21,11.17-31.62,1.9-5.63,3-11.51,4.94-17.13,3.43-10.12,7.1-20.17,10.83-30.18,1.57-4.23,3.55-8.31,5.35-12.46,11,13.57,22,27.09,32.94,40.71C154.92,144.22,166.56,159,178.24,173.69Z" transform="translate(-1 -1)" fill="#fd7100"/><path d="M441,208.08q-32.14-48.46-64.28-96.94c-1.09-1.65-2-3.42-3-5.14,8.5,4.84,17.07,9.55,25.48,14.54,18.6,11,37.11,22.23,55.69,33.3a14.11,14.11,0,0,0,3.28,1,7.62,7.62,0,0,1,.81.14c.12.65.25,1.31.38,2-.06.7-.11,1.39-.17,2.09l-16.32,48.86Z" transform="translate(-1 -1)" fill="#c93000"/><path d="M1002.06,120a39.65,39.65,0,0,1-6.25,1q-56.91.09-113.82,0c2.51-4.59,4.87-9.27,7.54-13.75q18.18-30.48,36.55-60.85c2.38-3.94,5.23-7.58,7.86-11.36q15,18.59,29.93,37.16Q983,96.06,1002.06,120Z" transform="translate(-1 -1)" fill="#f94900"/><path d="M62,228l-2,5C58.42,230.43,59.62,229,62,228Z" transform="translate(-1 -1)" fill="#fd6900"/><path d="M158.15,296.79l-67,.23L90,297c-2.23-4-4.22-8.11-6.72-11.9-8.54-12.94-17.27-25.76-25.9-38.65A4.88,4.88,0,0,1,57,245c7.36,3.37,14.81,6.56,22.07,10.14,17.7,8.72,35.31,17.61,52.95,26.44,7.86,3.93,15.75,7.82,23.53,11.9C156.69,294.09,157.3,295.67,158.15,296.79Z" transform="translate(-1 -1)" fill="#f04600"/><path d="M163,294h1L161.93,297C162.29,296,162.64,295,163,294Z" transform="translate(-1 -1)" fill="#fb4f00"/><path d="M918,369c0-.36,0-.72,0-1.08a44.91,44.91,0,0,1,6.28-.86Q963.66,367,1003,367h1l.84,2c3.52,11.26,7,22.54,10.58,33.79,1.64,5.14,3.46,10.23,5.61,16.55-4.43-2.05-7.71-3.46-10.89-5.05Q966,392.2,921.78,370.1A22.46,22.46,0,0,0,918,369Z" transform="translate(-1 -1)" fill="#c11f00"/><path d="M952,245v-3h2v3Z" transform="translate(-1 -1)" fill="#ec3d00"/><path d="M442.85,207.93l16.32-48.86c.53,1.29,1.54,2.58,1.52,3.86-.1,7.44-1.42,15-.46,22.26,1.36,10.19-4.55,15.07-11.59,19.72A62.23,62.23,0,0,1,442.85,207.93Z" transform="translate(-1 -1)" fill="#f98200"/><path d="M182,277l3-3Z" transform="translate(-1 -1)" fill="#fb4f00"/><path d="M166,293l3-3Z" transform="translate(-1 -1)" fill="#fb4f00"/><path d="M174,285l3-3Z" transform="translate(-1 -1)" fill="#fb4f00"/><path d="M190,269c.66-.67,1.33-1.34,2-2C191.33,267.66,190.66,268.33,190,269Z" transform="translate(-1 -1)" fill="#fb4f00"/><path d="M182,185l-1-2Z" transform="translate(-1 -1)" fill="#fd6900"/></g></g></svg>